# xmcd
#
# Track frame offsets:
#	150
#	18194
#	33208
#	47924
#	62311
#	74801
#	88770
#	102892
#	116604
#	134372
#	147227
#	159014
#	171876
#	187300
#	201217
#	217078
#	230510
#	245167
#	258948
#	273098
#
# Disc length: 3854 seconds
#
# Revision: 0
# Processed by: cddbd v1.5.2PL0 Copyright (c) Steve Scherf et al.
# Submitted via: EasyCDDAExtractor 16.0.6.1
#
DISCID=250f0c14
DTITLE=Various Artist - Le Son Dancefloor Summer 2018 [CD3)
DYEAR=2018
DGENRE=Dance
TTITLE0=Maître Gims - Caméléon
TTITLE1=Dadju - Reine
TTITLE2=Aslove - So High
TTITLE3=Kev - Make Up Your Mind
TTITLE4=Liam - I Don't Mind
TTITLE5=Anton Powers - Heart For Sale
TTITLE6=Qqun - J'aime
TTITLE7=Vigiland - Be Your Friend??
TTITLE8=Gorgon City - Motorola
TTITLE9=Benjamin Braxton - Let's Dance
TTITLE10=Vato Gonzalez - Bump and Grind (Bassline Riddim)
TTITLE11=Broiler - Mirror
TTITLE12=Oovee - Higher Love
TTITLE13=Wilkinson - Take It Up
TTITLE14=Stine Bramsen - You're Not Giving Up
TTITLE15=Benjamin Braxton - Revolution
TTITLE16=Dada Life -  We Want Your Soul
TTITLE17=A.M.T - Miracle
TTITLE18=Siks - Stranger Sounds
TTITLE19=Oath - Don't Fight
EXTD=
EXTT0=
EXTT1=
EXTT2=
EXTT3=
EXTT4=
EXTT5=
EXTT6=
EXTT7=
EXTT8=
EXTT9=
EXTT10=
EXTT11=
EXTT12=
EXTT13=
EXTT14=
EXTT15=
EXTT16=
EXTT17=
EXTT18=
EXTT19=
PLAYORDER=
